<?xml version="1.0" encoding="UTF-8" standalone="no"?>
<svg
   xmlns:dc="http://purl.org/dc/elements/1.1/"
   xmlns:cc="http://creativecommons.org/ns#"
   xmlns:rdf="http://www.w3.org/1999/02/22-rdf-syntax-ns#"
   xmlns:svg="http://www.w3.org/2000/svg"
   xmlns="http://www.w3.org/2000/svg"
   xmlns:sodipodi="http://sodipodi.sourceforge.net/DTD/sodipodi-0.dtd"
   xmlns:inkscape="http://www.inkscape.org/namespaces/inkscape"
   width="500pt"
   height="500pt"
   viewBox="0 0 500 500"
   version="1.2"
   id="svg27"
   sodipodi:docname="codepen.svg"
   inkscape:version="0.92.1 r15371">
  <metadata
     id="metadata33">
    <rdf:RDF>
      <cc:Work
         rdf:about="">
        <dc:format>image/svg+xml</dc:format>
        <dc:type
           rdf:resource="http://purl.org/dc/dcmitype/StillImage" />
        <dc:title></dc:title>
      </cc:Work>
    </rdf:RDF>
  </metadata>
  <defs
     id="defs31" />
  <sodipodi:namedview
     pagecolor="#ffffff"
     bordercolor="#666666"
     borderopacity="1"
     objecttolerance="10"
     gridtolerance="10"
     guidetolerance="10"
     inkscape:pageopacity="0"
     inkscape:pageshadow="2"
     inkscape:window-width="1920"
     inkscape:window-height="1027"
     id="namedview29"
     showgrid="false"
     inkscape:zoom="1.287"
     inkscape:cx="333.33333"
     inkscape:cy="333.33333"
     inkscape:window-x="1912"
     inkscape:window-y="-8"
     inkscape:window-maximized="1"
     inkscape:current-layer="svg27" />
  <g
     id="surface35371">
    <path
       style=" stroke:none;fill-rule:nonzero;fill:rgb(6.278992%,5.741882%,5.058289%);fill-opacity:1;"
       d="M 129.953125 226.667969 L 129.953125 268.738281 L 161.402344 247.703125 Z M 129.953125 226.667969 "
       id="path10" />
    <path
       style=" stroke:none;fill-rule:nonzero;fill:rgb(6.278992%,5.741882%,5.058289%);fill-opacity:1;"
       d="M 238.503906 196.128906 L 238.503906 137.503906 L 140.015625 203.15625 L 184.007813 232.585938 Z M 238.503906 196.128906 "
       id="path12" />
    <path
       style=" stroke:none;fill-rule:nonzero;fill:rgb(6.278992%,5.741882%,5.058289%);fill-opacity:1;"
       d="M 362.132813 203.15625 L 263.644531 137.503906 L 263.644531 196.128906 L 318.140625 232.585938 Z M 362.132813 203.15625 "
       id="path14" />
    <path
       style=" stroke:none;fill-rule:nonzero;fill:rgb(6.278992%,5.741882%,5.058289%);fill-opacity:1;"
       d="M 140.015625 292.253906 L 238.503906 357.90625 L 238.503906 299.277344 L 184.011719 262.828125 Z M 140.015625 292.253906 "
       id="path16" />
    <path
       style=" stroke:none;fill-rule:nonzero;fill:rgb(6.278992%,5.741882%,5.058289%);fill-opacity:1;"
       d="M 263.644531 299.277344 L 263.644531 357.90625 L 362.128906 292.253906 L 318.140625 262.832031 Z M 263.644531 299.277344 "
       id="path18" />
    <path
       style=" stroke:none;fill-rule:nonzero;fill:rgb(6.278992%,5.741882%,5.058289%);fill-opacity:1;"
       d="M 251.070313 217.964844 L 206.613281 247.703125 L 251.070313 277.441406 L 295.53125 247.703125 Z M 251.070313 217.964844 "
       id="path20" />
    <path
       style=" stroke:none;fill-rule:nonzero;fill:rgb(6.278992%,5.741882%,5.058289%);fill-opacity:1;"
       d="M 397.332031 292.269531 C 397.332031 292.820313 397.292969 293.367188 397.21875 293.914063 C 397.191406 294.089844 397.148438 294.277344 397.117188 294.453125 C 397.054688 294.804688 396.992188 295.160156 396.898438 295.507813 C 396.847656 295.714844 396.769531 295.914063 396.703125 296.113281 C 396.601563 296.421875 396.503906 296.730469 396.382813 297.039063 C 396.296875 297.246094 396.191406 297.445313 396.101563 297.644531 C 395.964844 297.929688 395.824219 298.207031 395.671875 298.484375 C 395.558594 298.675781 395.433594 298.871094 395.3125 299.0625 C 395.144531 299.324219 394.972656 299.578125 394.785156 299.824219 C 394.644531 300.015625 394.503906 300.191406 394.351563 300.371094 C 394.152344 300.597656 393.945313 300.832031 393.726563 301.046875 C 393.558594 301.214844 393.398438 301.382813 393.226563 301.539063 C 393 301.746094 392.757813 301.945313 392.511719 302.136719 C 392.324219 302.285156 392.140625 302.429688 391.945313 302.570313 C 391.871094 302.617188 391.808594 302.675781 391.734375 302.722656 L 258.046875 391.851563 C 255.933594 393.257813 253.507813 393.964844 251.070313 393.964844 C 248.644531 393.964844 246.210938 393.257813 244.101563 391.851563 L 110.410156 302.722656 C 110.339844 302.675781 110.273438 302.617188 110.207031 302.570313 C 110.007813 302.429688 109.820313 302.285156 109.636719 302.136719 C 109.390625 301.945313 109.148438 301.746094 108.921875 301.539063 C 108.75 301.382813 108.585938 301.214844 108.417969 301.046875 C 108.199219 300.832031 107.996094 300.597656 107.792969 300.371094 C 107.644531 300.191406 107.5 300.015625 107.363281 299.824219 C 107.175781 299.578125 107 299.324219 106.835938 299.0625 C 106.707031 298.871094 106.589844 298.675781 106.472656 298.484375 C 106.320313 298.207031 106.179688 297.929688 106.046875 297.644531 C 105.949219 297.445313 105.851563 297.246094 105.765625 297.039063 C 105.640625 296.730469 105.539063 296.421875 105.441406 296.113281 C 105.375 295.914063 105.304688 295.714844 105.246094 295.507813 C 105.152344 295.160156 105.09375 294.804688 105.027344 294.453125 C 104.996094 294.277344 104.949219 294.089844 104.925781 293.914063 C 104.851563 293.367188 104.8125 292.820313 104.8125 292.269531 L 104.8125 203.140625 C 104.8125 202.585938 104.851563 202.039063 104.925781 201.5 C 104.949219 201.316406 104.996094 201.140625 105.027344 200.953125 C 105.09375 200.601563 105.152344 200.246094 105.246094 199.902344 C 105.304688 199.691406 105.375 199.492188 105.441406 199.292969 C 105.539063 198.984375 105.640625 198.675781 105.765625 198.375 C 105.851563 198.167969 105.949219 197.960938 106.046875 197.761719 C 106.179688 197.476563 106.320313 197.199219 106.472656 196.929688 C 106.589844 196.730469 106.707031 196.539063 106.835938 196.34375 C 107 196.085938 107.175781 195.832031 107.363281 195.582031 C 107.5 195.398438 107.644531 195.214844 107.792969 195.039063 C 107.996094 194.808594 108.199219 194.578125 108.417969 194.359375 C 108.585938 194.191406 108.75 194.023438 108.921875 193.867188 C 109.148438 193.660156 109.390625 193.460938 109.636719 193.269531 C 109.820313 193.121094 110.007813 192.976563 110.207031 192.835938 C 110.273438 192.789063 110.339844 192.730469 110.410156 192.683594 L 244.101563 103.554688 C 248.324219 100.738281 253.820313 100.738281 258.046875 103.554688 L 391.734375 192.683594 C 391.808594 192.730469 391.871094 192.789063 391.945313 192.835938 C 392.140625 192.976563 392.324219 193.121094 392.511719 193.269531 C 392.757813 193.460938 393 193.660156 393.226563 193.867188 C 393.398438 194.023438 393.558594 194.191406 393.726563 194.359375 C 393.945313 194.578125 394.152344 194.808594 394.351563 195.039063 C 394.503906 195.214844 394.644531 195.398438 394.785156 195.582031 C 394.972656 195.832031 395.144531 196.085938 395.3125 196.34375 C 395.433594 196.539063 395.558594 196.730469 395.671875 196.929688 C 395.824219 197.199219 395.964844 197.476563 396.101563 197.761719 C 396.191406 197.960938 396.296875 198.167969 396.382813 198.375 C 396.503906 198.675781 396.601563 198.984375 396.703125 199.292969 C 396.769531 199.492188 396.847656 199.691406 396.898438 199.902344 C 396.992188 200.246094 397.054688 200.601563 397.117188 200.953125 C 397.148438 201.140625 397.191406 201.316406 397.21875 201.5 C 397.292969 202.039063 397.332031 202.585938 397.332031 203.140625 Z M 251.070313 11.15625 C 120.433594 11.15625 14.523438 117.058594 14.523438 247.703125 C 14.523438 378.347656 120.433594 484.25 251.070313 484.25 C 381.714844 484.25 487.621094 378.347656 487.621094 247.703125 C 487.621094 117.058594 381.714844 11.15625 251.070313 11.15625 "
       id="path22" />
    <path
       style=" stroke:none;fill-rule:nonzero;fill:rgb(6.278992%,5.741882%,5.058289%);fill-opacity:1;"
       d="M 372.195313 268.738281 L 372.195313 226.667969 L 340.75 247.703125 Z M 372.195313 268.738281 "
       id="path24" />
  </g>
</svg>
